<svg xmlns="http://www.w3.org/2000/svg" xmlns:v="https://svgstorm.com"
viewBox = "0 0 500 500"
width="500"
height="500">
<g fill="None" fill-opacity="0.0" stroke="#FEFEFE" stroke-opacity="1.00" stroke-width="0.3"><path d="
M 0.00 500.00 
L 500.00 500.00
L 500.00 0.00
L 0.00 0.00
L 0.00 500.00
M 279.00 161.00 
C 286.05 164.30 288.85 172.66 294.75 177.25 C 300.66 181.84 305.33 188.52 310.00 194.00
C 291.54 199.49 285.22 179.17 273.00 172.00
C 266.43 170.55 256.70 171.69 250.00 172.00 C 243.30 172.31 233.18 169.72 227.00 172.00
C 225.51 172.55 221.28 177.72 220.00 179.00
C 216.37 183.25 211.10 190.62 206.00 193.00
C 203.04 194.38 185.13 196.04 183.00 193.00
C 176.19 183.28 190.93 180.27 197.00 182.00 C 203.07 183.73 208.72 174.84 212.00 171.00
C 213.26 169.53 214.71 168.29 216.00 167.00
C 217.75 164.96 219.50 162.17 222.00 161.00
C 228.98 157.74 241.81 159.92 250.00 160.00 C 258.19 160.08 271.96 157.71 279.00 161.00
M 274.00 186.00 
C 276.00 188.00 278.18 189.87 280.00 192.00
C 283.32 195.88 288.04 199.51 290.00 204.00
C 282.77 203.42 273.90 206.47 269.75 198.25 C 265.61 190.03 258.20 192.88 250.00 192.00 C 241.80 191.12 235.14 192.21 230.75 198.75 C 226.37 205.29 222.86 206.11 217.75 211.75 C 212.65 217.39 199.88 212.19 193.00 214.00
C 193.00 217.00 193.00 220.00 193.00 223.00
C 202.27 221.49 214.25 223.00 220.25 227.75 C 226.25 232.50 230.00 241.44 236.75 244.25 C 243.51 247.06 260.92 247.48 266.75 242.75 C 272.58 238.02 279.02 227.91 290.00 233.00
C 284.97 240.71 275.48 248.42 269.00 256.00
C 262.69 259.19 254.40 255.91 247.00 257.00 C 239.60 258.09 232.83 257.65 228.00 252.00
C 222.64 245.73 218.39 242.75 212.75 236.25 C 207.11 229.74 190.26 238.38 184.00 234.00
C 181.28 232.09 184.60 227.28 183.00 225.00
C 180.19 222.19 173.72 225.04 170.00 224.00
C 170.00 220.33 170.00 216.67 170.00 213.00
C 171.51 210.84 180.33 211.76 183.00 212.00
C 182.99 194.12 198.68 205.69 211.00 202.00
C 219.11 198.21 225.24 186.78 231.00 181.00
C 244.82 183.64 263.77 175.30 274.00 186.00
M 264.00 201.00 
C 265.72 203.46 262.71 209.24 264.00 212.00
C 258.58 213.29 239.59 208.07 239.08 218.08 C 238.57 228.09 258.17 224.46 264.00 225.00
C 264.00 228.67 264.00 232.33 264.00 236.00
C 256.93 234.46 243.29 238.83 237.75 234.25 C 232.22 229.66 229.99 223.12 224.00 220.00
C 226.20 213.58 233.07 209.53 237.00 204.00
C 239.82 200.70 244.60 198.41 249.00 200.00 C 253.40 201.59 261.37 197.25 264.00 201.00
M 317.00 203.00 
C 318.57 205.24 315.83 210.49 317.00 213.00
C 321.67 213.00 326.33 213.00 331.00 213.00
C 331.00 216.67 331.00 220.33 331.00 224.00
C 326.33 224.00 321.67 224.00 317.00 224.00
C 317.00 227.33 317.00 230.67 317.00 234.00
C 312.33 234.00 307.67 234.00 303.00 234.00
C 303.00 230.33 303.00 226.67 303.00 223.00
C 305.67 223.00 308.33 223.00 311.00 223.00
C 311.00 220.00 311.00 217.00 311.00 214.00
C 309.21 212.75 305.01 214.94 303.00 214.00
C 303.00 210.33 303.00 206.67 303.00 203.00
C 304.34 201.09 315.70 201.15 317.00 203.00
M 214.00 251.00 
C 217.78 255.42 221.57 262.46 227.00 265.00
C 233.45 266.93 243.15 265.10 250.00 265.00 C 256.85 264.90 267.43 266.97 274.00 265.00
C 276.53 263.82 278.31 260.98 280.00 259.00
C 282.47 256.11 285.39 253.61 288.00 251.00
C 293.85 244.15 299.31 240.87 309.00 243.00
C 301.10 255.03 289.61 265.80 279.00 276.00
C 272.02 279.27 259.19 277.08 251.00 277.00 C 242.81 276.92 229.04 279.29 222.00 276.00
C 213.78 272.16 209.64 259.04 201.00 255.00
C 194.92 253.18 179.97 256.41 183.00 247.00 C 186.03 237.59 198.70 242.34 206.00 243.00
C 209.16 244.32 211.91 248.55 214.00 251.00
M 191.00 304.00 
C 189.67 303.58 182.08 303.24 181.00 304.00
C 175.09 309.91 183.17 320.45 191.00 316.00
C 191.89 313.45 192.51 311.05 196.00 312.00
C 198.70 321.21 183.78 319.78 179.00 319.00 C 174.22 318.22 173.80 301.70 178.25 300.25 C 182.70 298.80 198.93 297.82 196.00 307.00
C 192.78 308.05 192.36 305.75 191.00 304.00
M 223.00 320.00 
C 219.07 321.19 217.89 317.87 217.00 315.00
C 213.33 315.00 209.67 315.00 206.00 315.00
C 205.20 317.78 203.17 319.81 200.00 319.00
C 203.35 314.73 204.88 298.75 212.00 300.00 C 219.13 301.25 219.37 315.26 223.00 320.00
M 244.00 313.00 
C 240.90 314.71 234.82 312.18 232.00 314.00
C 230.42 315.46 231.16 317.88 231.00 320.00
C 222.96 318.69 228.76 306.05 227.00 300.00
C 236.61 297.45 255.20 301.05 244.00 313.00
M 253.00 300.00 
C 253.31 299.85 255.69 299.85 256.00 300.00
C 258.40 301.18 259.54 323.16 252.00 320.00
C 252.66 313.50 250.68 305.67 253.00 300.00
M 281.00 303.00 
C 279.86 305.34 275.04 303.29 273.00 304.00
C 270.65 307.36 274.76 315.23 273.00 319.00
C 265.50 319.76 270.41 308.66 269.00 304.00
C 266.87 303.25 262.18 305.44 261.00 303.00
C 260.61 302.19 261.31 300.85 261.00 300.00
C 267.67 300.00 274.33 300.00 281.00 300.00
C 281.00 301.00 281.00 302.00 281.00 303.00
M 304.00 319.00 
C 300.86 319.89 298.78 317.71 298.00 315.00
C 291.05 312.87 287.23 317.76 282.00 319.00
C 284.90 314.71 286.22 299.78 293.01 300.01 C 299.80 300.24 300.65 314.55 304.00 319.00
M 325.00 319.00 
C 323.88 321.31 310.51 320.51 309.00 319.00
C 307.22 317.22 306.70 301.33 309.00 300.00
C 310.00 299.42 311.92 300.44 313.00 300.00
C 313.00 305.33 313.00 310.67 313.00 316.00
C 317.00 316.00 321.00 316.00 325.00 316.00
C 325.00 317.00 325.00 318.00 325.00 319.00
M 232.00 334.00 
C 229.39 331.95 226.25 329.98 222.00 331.00
C 219.23 339.20 226.57 340.89 232.00 337.00
C 230.24 343.66 219.22 343.08 219.00 335.00 C 218.78 326.92 231.93 325.97 232.00 334.00
M 249.00 331.00 
C 250.62 333.24 251.12 339.46 248.00 341.00
C 241.73 344.10 235.51 340.19 236.00 334.00 C 236.49 327.81 245.92 326.73 249.00 331.00
M 254.00 341.00 
C 254.00 337.00 254.00 333.00 254.00 329.00
C 260.65 329.44 266.98 326.48 267.00 335.00 C 267.02 343.52 260.62 340.53 254.00 341.00
M 283.00 330.00 
C 280.90 332.08 276.85 330.50 274.00 331.00
C 272.78 336.49 280.31 332.14 282.00 335.00
C 280.23 337.03 276.52 335.53 274.00 336.00
C 272.94 341.77 281.09 336.97 283.00 340.00
C 279.91 342.19 274.84 340.43 271.00 341.00
C 267.92 331.82 274.69 325.30 283.00 330.00 Z"/>
</g>
<g fill="None" fill-opacity="0.0" stroke="#8F9DA9" stroke-opacity="1.00" stroke-width="0.3"><path d="
M 222.00 161.00 
C 229.83 158.66 241.70 160.90 250.00 161.00 C 258.30 161.10 271.05 158.62 279.00 161.00
C 271.96 157.71 258.19 160.08 250.00 160.00 C 241.81 159.92 228.98 157.74 222.00 161.00 Z"/>
</g>
<g fill="None" fill-opacity="0.0" stroke="#0D263A" stroke-opacity="1.00" stroke-width="0.3"><path d="
M 216.00 167.00 
C 214.74 168.47 213.29 169.71 212.00 171.00
C 208.72 174.84 203.07 183.73 197.00 182.00 C 190.93 180.27 176.19 183.28 183.00 193.00
C 190.19 191.42 198.96 195.11 206.00 193.00
C 211.10 190.62 216.37 183.25 220.00 179.00
C 221.98 176.68 224.18 173.32 227.00 172.00
C 232.98 169.20 243.01 171.21 250.00 171.00 C 256.99 170.79 266.91 169.75 273.00 172.00
C 285.22 179.17 291.54 199.49 310.00 194.00
C 305.33 188.52 300.66 181.84 294.75 177.25 C 288.85 172.66 286.05 164.30 279.00 161.00
C 271.05 158.62 258.30 161.10 250.00 161.00 C 241.70 160.90 229.83 158.66 222.00 161.00
C 219.50 162.17 217.75 164.96 216.00 167.00 Z"/>
</g>
<g fill="None" fill-opacity="0.0" stroke="#798790" stroke-opacity="1.00" stroke-width="0.3"><path d="
M 212.00 171.00 
C 213.29 169.71 214.74 168.47 216.00 167.00
C 214.71 168.29 213.26 169.53 212.00 171.00 Z"/>
</g>
<g fill="None" fill-opacity="0.0" stroke="#72808A" stroke-opacity="1.00" stroke-width="0.3"><path d="
M 227.00 172.00 
C 233.18 169.72 243.30 172.31 250.00 172.00 C 256.70 171.69 266.43 170.55 273.00 172.00
C 266.91 169.75 256.99 170.79 250.00 171.00 C 243.01 171.21 232.98 169.20 227.00 172.00 Z"/>
</g>
<g fill="None" fill-opacity="0.0" stroke="#AFB9BF" stroke-opacity="1.00" stroke-width="0.3"><path d="
M 220.00 179.00 
C 221.28 177.72 225.51 172.55 227.00 172.00
C 224.18 173.32 221.98 176.68 220.00 179.00 Z"/>
</g>
<g fill="None" fill-opacity="0.0" stroke="#0D263A" stroke-opacity="1.00" stroke-width="0.3"><path d="
M 211.00 202.00 
C 203.48 205.52 192.42 201.44 184.00 203.00
C 183.39 206.17 185.25 210.65 183.00 213.00
C 178.70 213.39 174.31 212.71 170.00 213.00
C 170.00 216.67 170.00 220.33 170.00 224.00
C 173.72 225.04 180.19 222.19 183.00 225.00
C 185.09 227.09 183.49 231.15 184.00 234.00
C 190.26 238.38 207.11 229.74 212.75 236.25 C 218.39 242.75 222.64 245.73 228.00 252.00
C 232.69 256.69 239.25 257.14 246.00 256.00 C 252.75 254.86 262.45 258.16 269.00 256.00
C 275.48 248.42 284.97 240.71 290.00 233.00
C 279.02 227.91 272.58 238.02 266.75 242.75 C 260.92 247.48 243.51 247.06 236.75 244.25 C 230.00 241.44 226.25 232.50 220.25 227.75 C 214.25 223.00 202.27 221.49 193.00 223.00
C 193.00 220.00 193.00 217.00 193.00 214.00
C 199.88 212.19 212.65 217.39 217.75 211.75 C 222.86 206.11 226.37 205.29 230.75 198.75 C 235.14 192.21 241.80 191.12 250.00 192.00 C 258.20 192.88 265.61 190.03 269.75 198.25 C 273.90 206.47 282.77 203.42 290.00 204.00
C 288.04 199.51 283.32 195.88 280.00 192.00
C 278.00 190.00 275.82 188.13 274.00 186.00
C 263.77 175.30 244.82 183.64 231.00 181.00
C 225.24 186.78 219.11 198.21 211.00 202.00 Z"/>
</g>
<g fill="None" fill-opacity="0.0" stroke="#828E99" stroke-opacity="1.00" stroke-width="0.3"><path d="
M 280.00 192.00 
C 278.18 189.87 276.00 188.00 274.00 186.00
C 275.82 188.13 278.00 190.00 280.00 192.00 Z"/>
</g>
<g fill="None" fill-opacity="0.0" stroke="#979FA8" stroke-opacity="1.00" stroke-width="0.3"><path d="
M 206.00 193.00 
C 198.96 195.11 190.19 191.42 183.00 193.00
C 185.13 196.04 203.04 194.38 206.00 193.00 Z"/>
</g>
<g fill="None" fill-opacity="0.0" stroke="#879299" stroke-opacity="1.00" stroke-width="0.3"><path d="
M 237.00 204.00 
C 243.92 197.61 255.34 202.58 264.00 201.00
C 261.37 197.25 253.40 201.59 249.00 200.00 C 244.60 198.41 239.82 200.70 237.00 204.00 Z"/>
</g>
<g fill="None" fill-opacity="0.0" stroke="#0E263A" stroke-opacity="1.00" stroke-width="0.3"><path d="
M 237.00 204.00 
C 233.07 209.53 226.20 213.58 224.00 220.00
C 229.99 223.12 232.22 229.66 237.75 234.25 C 243.29 238.83 256.93 234.46 264.00 236.00
C 264.00 232.33 264.00 228.67 264.00 225.00
C 258.17 224.46 238.57 228.09 239.08 218.08 C 239.59 208.07 258.58 213.29 264.00 212.00
C 262.71 209.24 265.72 203.46 264.00 201.00
C 255.34 202.58 243.92 197.61 237.00 204.00 Z"/>
</g>
<g fill="None" fill-opacity="0.0" stroke="#717D86" stroke-opacity="1.00" stroke-width="0.3"><path d="
M 183.00 212.00 
C 183.00 212.50 183.00 213.00 183.00 213.00
C 185.25 210.65 183.39 206.17 184.00 203.00
C 192.42 201.44 203.48 205.52 211.00 202.00
C 198.68 205.69 182.99 194.12 183.00 212.00 Z"/>
</g>
<g fill="None" fill-opacity="0.0" stroke="#858F98" stroke-opacity="1.00" stroke-width="0.3"><path d="
M 303.00 203.00 
C 307.67 203.00 312.33 203.00 317.00 203.00
C 315.70 201.15 304.34 201.09 303.00 203.00 Z"/>
</g>
<g fill="None" fill-opacity="0.0" stroke="#0F263A" stroke-opacity="1.00" stroke-width="0.3"><path d="
M 311.00 214.00 
C 312.72 215.20 312.68 221.82 311.00 223.00
C 308.33 223.00 305.67 223.00 303.00 223.00
C 303.00 226.67 303.00 230.33 303.00 234.00
C 307.67 234.00 312.33 234.00 317.00 234.00
C 317.00 230.67 317.00 227.33 317.00 224.00
C 321.67 224.00 326.33 224.00 331.00 224.00
C 331.00 220.33 331.00 216.67 331.00 213.00
C 326.33 213.00 321.67 213.00 317.00 213.00
C 315.83 210.49 318.57 205.24 317.00 203.00
C 312.33 203.00 307.67 203.00 303.00 203.00
C 303.00 206.67 303.00 210.33 303.00 214.00
C 305.01 214.94 309.21 212.75 311.00 214.00 Z"/>
</g>
<g fill="None" fill-opacity="0.0" stroke="#AEBCC5" stroke-opacity="1.00" stroke-width="0.3"><path d="
M 170.00 213.00 
C 174.31 212.71 178.70 213.39 183.00 213.00
C 183.00 213.00 183.00 212.50 183.00 212.00
C 180.33 211.76 171.51 210.84 170.00 213.00 Z"/>
</g>
<g fill="None" fill-opacity="0.0" stroke="#7F8E9A" stroke-opacity="1.00" stroke-width="0.3"><path d="
M 311.00 223.00 
C 312.68 221.82 312.72 215.20 311.00 214.00
C 311.00 217.00 311.00 220.00 311.00 223.00 Z"/>
</g>
<g fill="None" fill-opacity="0.0" stroke="#717C85" stroke-opacity="1.00" stroke-width="0.3"><path d="
M 184.00 234.00 
C 183.49 231.15 185.09 227.09 183.00 225.00
C 184.60 227.28 181.28 232.09 184.00 234.00 Z"/>
</g>
<g fill="None" fill-opacity="0.0" stroke="#6C7780" stroke-opacity="1.00" stroke-width="0.3"><path d="
M 201.00 255.00 
C 196.23 252.77 189.52 254.59 184.00 254.00
C 184.00 250.67 184.00 247.33 184.00 244.00
C 191.33 244.00 198.67 244.00 206.00 244.00
C 205.77 243.84 206.00 243.00 206.00 243.00
C 198.70 242.34 186.03 237.59 183.00 247.00 C 179.97 256.41 194.92 253.18 201.00 255.00 Z"/>
</g>
<g fill="None" fill-opacity="0.0" stroke="#BDC9D1" stroke-opacity="1.00" stroke-width="0.3"><path d="
M 206.00 244.00 
C 208.73 245.91 211.70 248.70 214.00 251.00
C 211.91 248.55 209.16 244.32 206.00 243.00
C 206.00 243.00 205.77 243.84 206.00 244.00 Z"/>
</g>
<g fill="None" fill-opacity="0.0" stroke="#0B253A" stroke-opacity="1.00" stroke-width="0.3"><path d="
M 288.00 251.00 
C 285.53 253.89 282.61 256.39 280.00 259.00
C 278.31 260.98 276.53 263.82 274.00 265.00
C 268.13 267.75 257.94 266.07 251.00 266.00 C 244.06 265.93 232.92 267.77 227.00 265.00
C 221.57 262.46 217.78 255.42 214.00 251.00
C 211.70 248.70 208.73 245.91 206.00 244.00
C 198.67 244.00 191.33 244.00 184.00 244.00
C 184.00 247.33 184.00 250.67 184.00 254.00
C 189.52 254.59 196.23 252.77 201.00 255.00
C 209.64 259.04 213.78 272.16 222.00 276.00
C 229.83 278.34 241.70 276.10 250.00 276.00 C 258.30 275.90 271.05 278.38 279.00 276.00
C 289.61 265.80 301.10 255.03 309.00 243.00
C 299.31 240.87 293.85 244.15 288.00 251.00 Z"/>
</g>
<g fill="None" fill-opacity="0.0" stroke="#77848E" stroke-opacity="1.00" stroke-width="0.3"><path d="
M 280.00 259.00 
C 282.61 256.39 285.53 253.89 288.00 251.00
C 285.39 253.61 282.47 256.11 280.00 259.00 Z"/>
</g>
<g fill="None" fill-opacity="0.0" stroke="#7F858B" stroke-opacity="1.00" stroke-width="0.3"><path d="
M 269.00 256.00 
C 262.45 258.16 252.75 254.86 246.00 256.00 C 239.25 257.14 232.69 256.69 228.00 252.00
C 232.83 257.65 239.60 258.09 247.00 257.00 C 254.40 255.91 262.69 259.19 269.00 256.00 Z"/>
</g>
<g fill="None" fill-opacity="0.0" stroke="#657078" stroke-opacity="1.00" stroke-width="0.3"><path d="
M 274.00 265.00 
C 267.43 266.97 256.85 264.90 250.00 265.00 C 243.15 265.10 233.45 266.93 227.00 265.00
C 232.92 267.77 244.06 265.93 251.00 266.00 C 257.94 266.07 268.13 267.75 274.00 265.00 Z"/>
</g>
<g fill="None" fill-opacity="0.0" stroke="#707B84" stroke-opacity="1.00" stroke-width="0.3"><path d="
M 279.00 276.00 
C 271.05 278.38 258.30 275.90 250.00 276.00 C 241.70 276.10 229.83 278.34 222.00 276.00
C 229.04 279.29 242.81 276.92 251.00 277.00 C 259.19 277.08 272.02 279.27 279.00 276.00 Z"/>
</g>
<g fill="None" fill-opacity="0.0" stroke="#142736" stroke-opacity="1.00" stroke-width="0.3"><path d="
M 181.00 304.00 
C 183.15 301.85 188.80 302.92 191.00 304.00
C 192.36 305.75 192.78 308.05 196.00 307.00
C 198.93 297.82 182.70 298.80 178.25 300.25 C 173.80 301.70 174.22 318.22 179.00 319.00 C 183.78 319.78 198.70 321.21 196.00 312.00
C 192.51 311.05 191.89 313.45 191.00 316.00
C 183.17 320.45 175.09 309.91 181.00 304.00 Z"/>
</g>
<g fill="None" fill-opacity="0.0" stroke="#1C2E3F" stroke-opacity="1.00" stroke-width="0.3"><path d="
M 223.00 320.00 
C 219.37 315.26 219.13 301.25 212.00 300.00 C 204.88 298.75 203.35 314.73 200.00 319.00
C 203.17 319.81 205.20 317.78 206.00 315.00
C 209.67 315.00 213.33 315.00 217.00 315.00
C 217.89 317.87 219.07 321.19 223.00 320.00
M 212.00 304.00 
C 212.60 306.79 214.92 308.93 215.00 312.00
C 207.33 314.68 206.75 307.27 212.00 304.00 Z"/>
</g>
<g fill="None" fill-opacity="0.0" stroke="#1C2D3D" stroke-opacity="1.00" stroke-width="0.3"><path d="
M 232.00 314.00 
C 234.93 311.29 240.40 314.31 244.00 313.00
C 255.20 301.05 236.61 297.45 227.00 300.00
C 228.76 306.05 222.96 318.69 231.00 320.00
C 231.16 317.88 230.42 315.46 232.00 314.00
M 242.00 303.00 
C 247.35 306.73 237.19 314.36 232.33 309.67 C 227.47 304.98 237.31 299.73 242.00 303.00 Z"/>
</g>
<g fill="None" fill-opacity="0.0" stroke="#77838D" stroke-opacity="1.00" stroke-width="0.3"><path d="
M 256.00 300.00 
C 256.00 306.33 256.00 312.67 256.00 319.00
C 249.61 317.31 254.56 305.71 253.00 300.00
C 250.68 305.67 252.66 313.50 252.00 320.00
C 259.54 323.16 258.40 301.18 256.00 300.00 Z"/>
</g>
<g fill="None" fill-opacity="0.0" stroke="#0D2335" stroke-opacity="1.00" stroke-width="0.3"><path d="
M 256.00 300.00 
C 255.69 299.85 253.31 299.85 253.00 300.00
C 254.56 305.71 249.61 317.31 256.00 319.00
C 256.00 312.67 256.00 306.33 256.00 300.00 Z"/>
</g>
<g fill="None" fill-opacity="0.0" stroke="#162737" stroke-opacity="1.00" stroke-width="0.3"><path d="
M 261.00 303.00 
C 263.43 303.62 267.41 301.73 269.00 304.00
C 270.41 308.66 265.50 319.76 273.00 319.00
C 274.76 315.23 270.65 307.36 273.00 304.00
C 274.54 301.80 278.66 303.60 281.00 303.00
C 281.00 302.00 281.00 301.00 281.00 300.00
C 274.33 300.00 267.67 300.00 261.00 300.00
C 261.31 300.85 260.61 302.19 261.00 303.00 Z"/>
</g>
<g fill="None" fill-opacity="0.0" stroke="#182B3C" stroke-opacity="1.00" stroke-width="0.3"><path d="
M 304.00 319.00 
C 300.65 314.55 299.80 300.24 293.01 300.01 C 286.22 299.78 284.90 314.71 282.00 319.00
C 287.23 317.76 291.05 312.87 298.00 315.00
C 298.78 317.71 300.86 319.89 304.00 319.00
M 296.00 312.00 
C 288.94 314.03 289.68 308.23 292.00 304.00
C 295.25 304.42 295.54 309.24 296.00 312.00 Z"/>
</g>
<g fill="None" fill-opacity="0.0" stroke="#6D7A88" stroke-opacity="1.00" stroke-width="0.3"><path d="
M 309.00 319.00 
C 309.00 312.67 309.00 306.33 309.00 300.00
C 306.70 301.33 307.22 317.22 309.00 319.00 Z"/>
</g>
<g fill="None" fill-opacity="0.0" stroke="#182939" stroke-opacity="1.00" stroke-width="0.3"><path d="
M 309.00 319.00 
C 314.33 319.00 319.67 319.00 325.00 319.00
C 325.00 318.00 325.00 317.00 325.00 316.00
C 321.00 316.00 317.00 316.00 313.00 316.00
C 313.00 310.67 313.00 305.33 313.00 300.00
C 311.92 300.44 310.00 299.42 309.00 300.00
C 309.00 306.33 309.00 312.67 309.00 319.00 Z"/>
</g>
<g fill="None" fill-opacity="0.0" stroke="#728797" stroke-opacity="1.00" stroke-width="0.3"><path d="
M 181.00 304.00 
C 182.08 303.24 189.67 303.58 191.00 304.00
C 188.80 302.92 183.15 301.85 181.00 304.00 Z"/>
</g>
<g fill="None" fill-opacity="0.0" stroke="#DEE4E9" stroke-opacity="1.00" stroke-width="0.3"><path d="
M 242.00 303.00 
C 237.31 299.73 227.47 304.98 232.33 309.67 C 237.19 314.36 247.35 306.73 242.00 303.00 Z"/>
</g>
<g fill="None" fill-opacity="0.0" stroke="#7B8B98" stroke-opacity="1.00" stroke-width="0.3"><path d="
M 269.00 304.00 
C 267.41 301.73 263.43 303.62 261.00 303.00
C 262.18 305.44 266.87 303.25 269.00 304.00 Z"/>
</g>
<g fill="None" fill-opacity="0.0" stroke="#86949F" stroke-opacity="1.00" stroke-width="0.3"><path d="
M 273.00 304.00 
C 275.04 303.29 279.86 305.34 281.00 303.00
C 278.66 303.60 274.54 301.80 273.00 304.00 Z"/>
</g>
<g fill="None" fill-opacity="0.0" stroke="#D5DDE2" stroke-opacity="1.00" stroke-width="0.3"><path d="
M 212.00 304.00 
C 206.75 307.27 207.33 314.68 215.00 312.00
C 214.92 308.93 212.60 306.79 212.00 304.00 Z"/>
</g>
<g fill="None" fill-opacity="0.0" stroke="#D4DBE1" stroke-opacity="1.00" stroke-width="0.3"><path d="
M 296.00 312.00 
C 295.54 309.24 295.25 304.42 292.00 304.00
C 289.68 308.23 288.94 314.03 296.00 312.00 Z"/>
</g>
<g fill="None" fill-opacity="0.0" stroke="#8695A2" stroke-opacity="1.00" stroke-width="0.3"><path d="
M 232.00 314.00 
C 234.82 312.18 240.90 314.71 244.00 313.00
C 240.40 314.31 234.93 311.29 232.00 314.00 Z"/>
</g>
<g fill="None" fill-opacity="0.0" stroke="#96A4B1" stroke-opacity="1.00" stroke-width="0.3"><path d="
M 325.00 319.00 
C 319.67 319.00 314.33 319.00 309.00 319.00
C 310.51 320.51 323.88 321.31 325.00 319.00 Z"/>
</g>
<g fill="None" fill-opacity="0.0" stroke="#394046" stroke-opacity="1.00" stroke-width="0.3"><path d="
M 232.00 334.00 
C 231.93 325.97 218.78 326.92 219.00 335.00 C 219.22 343.08 230.24 343.66 232.00 337.00
C 226.57 340.89 219.23 339.20 222.00 331.00
C 226.25 329.98 229.39 331.95 232.00 334.00 Z"/>
</g>
<g fill="None" fill-opacity="0.0" stroke="#2C353F" stroke-opacity="1.00" stroke-width="0.3"><path d="
M 248.00 341.00 
C 249.48 339.95 249.74 332.50 249.00 331.00
C 245.92 326.73 236.49 327.81 236.00 334.00 C 235.51 340.19 241.73 344.10 248.00 341.00
M 247.00 331.00 
C 248.67 337.44 245.44 340.61 239.00 339.00
C 237.33 332.56 240.56 329.39 247.00 331.00 Z"/>
</g>
<g fill="None" fill-opacity="0.0" stroke="#2D3641" stroke-opacity="1.00" stroke-width="0.3"><path d="
M 254.00 341.00 
C 260.62 340.53 267.02 343.52 267.00 335.00 C 266.98 326.48 260.65 329.44 254.00 329.00
C 254.00 333.00 254.00 337.00 254.00 341.00
M 257.00 339.00 
C 254.49 334.19 259.56 327.37 264.22 331.78 C 268.89 336.18 261.18 341.38 257.00 339.00 Z"/>
</g>
<g fill="None" fill-opacity="0.0" stroke="#2E3742" stroke-opacity="1.00" stroke-width="0.3"><path d="
M 283.00 330.00 
C 274.69 325.30 267.92 331.82 271.00 341.00
C 274.84 340.43 279.91 342.19 283.00 340.00
C 281.09 336.97 272.94 341.77 274.00 336.00
C 276.52 335.53 280.23 337.03 282.00 335.00
C 280.31 332.14 272.78 336.49 274.00 331.00
C 276.85 330.50 280.90 332.08 283.00 330.00 Z"/>
</g>
<g fill="None" fill-opacity="0.0" stroke="#EAEFF3" stroke-opacity="1.00" stroke-width="0.3"><path d="
M 247.00 331.00 
C 240.56 329.39 237.33 332.56 239.00 339.00
C 245.44 340.61 248.67 337.44 247.00 331.00 Z"/>
</g>
<g fill="None" fill-opacity="0.0" stroke="#8A9096" stroke-opacity="1.00" stroke-width="0.3"><path d="
M 248.00 341.00 
C 251.12 339.46 250.62 333.24 249.00 331.00
C 249.74 332.50 249.48 339.95 248.00 341.00 Z"/>
</g>
<g fill="None" fill-opacity="0.0" stroke="#E6EBED" stroke-opacity="1.00" stroke-width="0.3"><path d="
M 257.00 339.00 
C 261.18 341.38 268.89 336.18 264.22 331.78 C 259.56 327.37 254.49 334.19 257.00 339.00 Z"/>
</g>
<g fill="#FEFEFE" fill-opacity="1.00" stroke="None">
<path d="
M 0.00 500.00 
L 500.00 500.00
L 500.00 0.00
L 0.00 0.00
L 0.00 500.00
M 279.00 161.00 
C 286.05 164.30 288.85 172.66 294.75 177.25 C 300.66 181.84 305.33 188.52 310.00 194.00
C 291.54 199.49 285.22 179.17 273.00 172.00
C 266.43 170.55 256.70 171.69 250.00 172.00 C 243.30 172.31 233.18 169.72 227.00 172.00
C 225.51 172.55 221.28 177.72 220.00 179.00
C 216.37 183.25 211.10 190.62 206.00 193.00
C 203.04 194.38 185.13 196.04 183.00 193.00
C 176.19 183.28 190.93 180.27 197.00 182.00 C 203.07 183.73 208.72 174.84 212.00 171.00
C 213.26 169.53 214.71 168.29 216.00 167.00
C 217.75 164.96 219.50 162.17 222.00 161.00
C 228.98 157.74 241.81 159.92 250.00 160.00 C 258.19 160.08 271.96 157.71 279.00 161.00
M 274.00 186.00 
C 276.00 188.00 278.18 189.87 280.00 192.00
C 283.32 195.88 288.04 199.51 290.00 204.00
C 282.77 203.42 273.90 206.47 269.75 198.25 C 265.61 190.03 258.20 192.88 250.00 192.00 C 241.80 191.12 235.14 192.21 230.75 198.75 C 226.37 205.29 222.86 206.11 217.75 211.75 C 212.65 217.39 199.88 212.19 193.00 214.00
C 193.00 217.00 193.00 220.00 193.00 223.00
C 202.27 221.49 214.25 223.00 220.25 227.75 C 226.25 232.50 230.00 241.44 236.75 244.25 C 243.51 247.06 260.92 247.48 266.75 242.75 C 272.58 238.02 279.02 227.91 290.00 233.00
C 284.97 240.71 275.48 248.42 269.00 256.00
C 262.69 259.19 254.40 255.91 247.00 257.00 C 239.60 258.09 232.83 257.65 228.00 252.00
C 222.64 245.73 218.39 242.75 212.75 236.25 C 207.11 229.74 190.26 238.38 184.00 234.00
C 181.28 232.09 184.60 227.28 183.00 225.00
C 180.19 222.19 173.72 225.04 170.00 224.00
C 170.00 220.33 170.00 216.67 170.00 213.00
C 171.51 210.84 180.33 211.76 183.00 212.00
C 182.99 194.12 198.68 205.69 211.00 202.00
C 219.11 198.21 225.24 186.78 231.00 181.00
C 244.82 183.64 263.77 175.30 274.00 186.00
M 264.00 201.00 
C 265.72 203.46 262.71 209.24 264.00 212.00
C 258.58 213.29 239.59 208.07 239.08 218.08 C 238.57 228.09 258.17 224.46 264.00 225.00
C 264.00 228.67 264.00 232.33 264.00 236.00
C 256.93 234.46 243.29 238.83 237.75 234.25 C 232.22 229.66 229.99 223.12 224.00 220.00
C 226.20 213.58 233.07 209.53 237.00 204.00
C 239.82 200.70 244.60 198.41 249.00 200.00 C 253.40 201.59 261.37 197.25 264.00 201.00
M 317.00 203.00 
C 318.57 205.24 315.83 210.49 317.00 213.00
C 321.67 213.00 326.33 213.00 331.00 213.00
C 331.00 216.67 331.00 220.33 331.00 224.00
C 326.33 224.00 321.67 224.00 317.00 224.00
C 317.00 227.33 317.00 230.67 317.00 234.00
C 312.33 234.00 307.67 234.00 303.00 234.00
C 303.00 230.33 303.00 226.67 303.00 223.00
C 305.67 223.00 308.33 223.00 311.00 223.00
C 311.00 220.00 311.00 217.00 311.00 214.00
C 309.21 212.75 305.01 214.94 303.00 214.00
C 303.00 210.33 303.00 206.67 303.00 203.00
C 304.34 201.09 315.70 201.15 317.00 203.00
M 214.00 251.00 
C 217.78 255.42 221.57 262.46 227.00 265.00
C 233.45 266.93 243.15 265.10 250.00 265.00 C 256.85 264.90 267.43 266.97 274.00 265.00
C 276.53 263.82 278.31 260.98 280.00 259.00
C 282.47 256.11 285.39 253.61 288.00 251.00
C 293.85 244.15 299.31 240.87 309.00 243.00
C 301.10 255.03 289.61 265.80 279.00 276.00
C 272.02 279.27 259.19 277.08 251.00 277.00 C 242.81 276.92 229.04 279.29 222.00 276.00
C 213.78 272.16 209.64 259.04 201.00 255.00
C 194.92 253.18 179.97 256.41 183.00 247.00 C 186.03 237.59 198.70 242.34 206.00 243.00
C 209.16 244.32 211.91 248.55 214.00 251.00
M 191.00 304.00 
C 189.67 303.58 182.08 303.24 181.00 304.00
C 175.09 309.91 183.17 320.45 191.00 316.00
C 191.89 313.45 192.51 311.05 196.00 312.00
C 198.70 321.21 183.78 319.78 179.00 319.00 C 174.22 318.22 173.80 301.70 178.25 300.25 C 182.70 298.80 198.93 297.82 196.00 307.00
C 192.78 308.05 192.36 305.75 191.00 304.00
M 223.00 320.00 
C 219.07 321.19 217.89 317.87 217.00 315.00
C 213.33 315.00 209.67 315.00 206.00 315.00
C 205.20 317.78 203.17 319.81 200.00 319.00
C 203.35 314.73 204.88 298.75 212.00 300.00 C 219.13 301.25 219.37 315.26 223.00 320.00
M 244.00 313.00 
C 240.90 314.71 234.82 312.18 232.00 314.00
C 230.42 315.46 231.16 317.88 231.00 320.00
C 222.96 318.69 228.76 306.05 227.00 300.00
C 236.61 297.45 255.20 301.05 244.00 313.00
M 253.00 300.00 
C 253.31 299.85 255.69 299.85 256.00 300.00
C 258.40 301.18 259.54 323.16 252.00 320.00
C 252.66 313.50 250.68 305.67 253.00 300.00
M 281.00 303.00 
C 279.86 305.34 275.04 303.29 273.00 304.00
C 270.65 307.36 274.76 315.23 273.00 319.00
C 265.50 319.76 270.41 308.66 269.00 304.00
C 266.87 303.25 262.18 305.44 261.00 303.00
C 260.61 302.19 261.31 300.85 261.00 300.00
C 267.67 300.00 274.33 300.00 281.00 300.00
C 281.00 301.00 281.00 302.00 281.00 303.00
M 304.00 319.00 
C 300.86 319.89 298.78 317.71 298.00 315.00
C 291.05 312.87 287.23 317.76 282.00 319.00
C 284.90 314.71 286.22 299.78 293.01 300.01 C 299.80 300.24 300.65 314.55 304.00 319.00
M 325.00 319.00 
C 323.88 321.31 310.51 320.51 309.00 319.00
C 307.22 317.22 306.70 301.33 309.00 300.00
C 310.00 299.42 311.92 300.44 313.00 300.00
C 313.00 305.33 313.00 310.67 313.00 316.00
C 317.00 316.00 321.00 316.00 325.00 316.00
C 325.00 317.00 325.00 318.00 325.00 319.00
M 232.00 334.00 
C 229.39 331.95 226.25 329.98 222.00 331.00
C 219.23 339.20 226.57 340.89 232.00 337.00
C 230.24 343.66 219.22 343.08 219.00 335.00 C 218.78 326.92 231.93 325.97 232.00 334.00
M 249.00 331.00 
C 250.62 333.24 251.12 339.46 248.00 341.00
C 241.73 344.10 235.51 340.19 236.00 334.00 C 236.49 327.81 245.92 326.73 249.00 331.00
M 254.00 341.00 
C 254.00 337.00 254.00 333.00 254.00 329.00
C 260.65 329.44 266.98 326.48 267.00 335.00 C 267.02 343.52 260.62 340.53 254.00 341.00
M 283.00 330.00 
C 280.90 332.08 276.85 330.50 274.00 331.00
C 272.78 336.49 280.31 332.14 282.00 335.00
C 280.23 337.03 276.52 335.53 274.00 336.00
C 272.94 341.77 281.09 336.97 283.00 340.00
C 279.91 342.19 274.84 340.43 271.00 341.00
C 267.92 331.82 274.69 325.30 283.00 330.00 Z"/>
</g>
<g fill="#8F9DA9" fill-opacity="1.00" stroke="None">
<path d="
M 222.00 161.00 
C 229.83 158.66 241.70 160.90 250.00 161.00 C 258.30 161.10 271.05 158.62 279.00 161.00
C 271.96 157.71 258.19 160.08 250.00 160.00 C 241.81 159.92 228.98 157.74 222.00 161.00 Z"/>
</g>
<g fill="#0D263A" fill-opacity="1.00" stroke="None">
<path d="
M 216.00 167.00 
C 214.74 168.47 213.29 169.71 212.00 171.00
C 208.72 174.84 203.07 183.73 197.00 182.00 C 190.93 180.27 176.19 183.28 183.00 193.00
C 190.19 191.42 198.96 195.11 206.00 193.00
C 211.10 190.62 216.37 183.25 220.00 179.00
C 221.98 176.68 224.18 173.32 227.00 172.00
C 232.98 169.20 243.01 171.21 250.00 171.00 C 256.99 170.79 266.91 169.75 273.00 172.00
C 285.22 179.17 291.54 199.49 310.00 194.00
C 305.33 188.52 300.66 181.84 294.75 177.25 C 288.85 172.66 286.05 164.30 279.00 161.00
C 271.05 158.62 258.30 161.10 250.00 161.00 C 241.70 160.90 229.83 158.66 222.00 161.00
C 219.50 162.17 217.75 164.96 216.00 167.00 Z"/>
</g>
<g fill="#798790" fill-opacity="1.00" stroke="None">
<path d="
M 212.00 171.00 
C 213.29 169.71 214.74 168.47 216.00 167.00
C 214.71 168.29 213.26 169.53 212.00 171.00 Z"/>
</g>
<g fill="#72808A" fill-opacity="1.00" stroke="None">
<path d="
M 227.00 172.00 
C 233.18 169.72 243.30 172.31 250.00 172.00 C 256.70 171.69 266.43 170.55 273.00 172.00
C 266.91 169.75 256.99 170.79 250.00 171.00 C 243.01 171.21 232.98 169.20 227.00 172.00 Z"/>
</g>
<g fill="#AFB9BF" fill-opacity="1.00" stroke="None">
<path d="
M 220.00 179.00 
C 221.28 177.72 225.51 172.55 227.00 172.00
C 224.18 173.32 221.98 176.68 220.00 179.00 Z"/>
</g>
<g fill="#0D263A" fill-opacity="1.00" stroke="None">
<path d="
M 211.00 202.00 
C 203.48 205.52 192.42 201.44 184.00 203.00
C 183.39 206.17 185.25 210.65 183.00 213.00
C 178.70 213.39 174.31 212.71 170.00 213.00
C 170.00 216.67 170.00 220.33 170.00 224.00
C 173.72 225.04 180.19 222.19 183.00 225.00
C 185.09 227.09 183.49 231.15 184.00 234.00
C 190.26 238.38 207.11 229.74 212.75 236.25 C 218.39 242.75 222.64 245.73 228.00 252.00
C 232.69 256.69 239.25 257.14 246.00 256.00 C 252.75 254.86 262.45 258.16 269.00 256.00
C 275.48 248.42 284.97 240.71 290.00 233.00
C 279.02 227.91 272.58 238.02 266.75 242.75 C 260.92 247.48 243.51 247.06 236.75 244.25 C 230.00 241.44 226.25 232.50 220.25 227.75 C 214.25 223.00 202.27 221.49 193.00 223.00
C 193.00 220.00 193.00 217.00 193.00 214.00
C 199.88 212.19 212.65 217.39 217.75 211.75 C 222.86 206.11 226.37 205.29 230.75 198.75 C 235.14 192.21 241.80 191.12 250.00 192.00 C 258.20 192.88 265.61 190.03 269.75 198.25 C 273.90 206.47 282.77 203.42 290.00 204.00
C 288.04 199.51 283.32 195.88 280.00 192.00
C 278.00 190.00 275.82 188.13 274.00 186.00
C 263.77 175.30 244.82 183.64 231.00 181.00
C 225.24 186.78 219.11 198.21 211.00 202.00 Z"/>
</g>
<g fill="#828E99" fill-opacity="1.00" stroke="None">
<path d="
M 280.00 192.00 
C 278.18 189.87 276.00 188.00 274.00 186.00
C 275.82 188.13 278.00 190.00 280.00 192.00 Z"/>
</g>
<g fill="#979FA8" fill-opacity="1.00" stroke="None">
<path d="
M 206.00 193.00 
C 198.96 195.11 190.19 191.42 183.00 193.00
C 185.13 196.04 203.04 194.38 206.00 193.00 Z"/>
</g>
<g fill="#879299" fill-opacity="1.00" stroke="None">
<path d="
M 237.00 204.00 
C 243.92 197.61 255.34 202.58 264.00 201.00
C 261.37 197.25 253.40 201.59 249.00 200.00 C 244.60 198.41 239.82 200.70 237.00 204.00 Z"/>
</g>
<g fill="#0E263A" fill-opacity="1.00" stroke="None">
<path d="
M 237.00 204.00 
C 233.07 209.53 226.20 213.58 224.00 220.00
C 229.99 223.12 232.22 229.66 237.75 234.25 C 243.29 238.83 256.93 234.46 264.00 236.00
C 264.00 232.33 264.00 228.67 264.00 225.00
C 258.17 224.46 238.57 228.09 239.08 218.08 C 239.59 208.07 258.58 213.29 264.00 212.00
C 262.71 209.24 265.72 203.46 264.00 201.00
C 255.34 202.58 243.92 197.61 237.00 204.00 Z"/>
</g>
<g fill="#717D86" fill-opacity="1.00" stroke="None">
<path d="
M 183.00 212.00 
C 183.00 212.50 183.00 213.00 183.00 213.00
C 185.25 210.65 183.39 206.17 184.00 203.00
C 192.42 201.44 203.48 205.52 211.00 202.00
C 198.68 205.69 182.99 194.12 183.00 212.00 Z"/>
</g>
<g fill="#858F98" fill-opacity="1.00" stroke="None">
<path d="
M 303.00 203.00 
C 307.67 203.00 312.33 203.00 317.00 203.00
C 315.70 201.15 304.34 201.09 303.00 203.00 Z"/>
</g>
<g fill="#0F263A" fill-opacity="1.00" stroke="None">
<path d="
M 311.00 214.00 
C 312.72 215.20 312.68 221.82 311.00 223.00
C 308.33 223.00 305.67 223.00 303.00 223.00
C 303.00 226.67 303.00 230.33 303.00 234.00
C 307.67 234.00 312.33 234.00 317.00 234.00
C 317.00 230.67 317.00 227.33 317.00 224.00
C 321.67 224.00 326.33 224.00 331.00 224.00
C 331.00 220.33 331.00 216.67 331.00 213.00
C 326.33 213.00 321.67 213.00 317.00 213.00
C 315.83 210.49 318.57 205.24 317.00 203.00
C 312.33 203.00 307.67 203.00 303.00 203.00
C 303.00 206.67 303.00 210.33 303.00 214.00
C 305.01 214.94 309.21 212.75 311.00 214.00 Z"/>
</g>
<g fill="#AEBCC5" fill-opacity="1.00" stroke="None">
<path d="
M 170.00 213.00 
C 174.31 212.71 178.70 213.39 183.00 213.00
C 183.00 213.00 183.00 212.50 183.00 212.00
C 180.33 211.76 171.51 210.84 170.00 213.00 Z"/>
</g>
<g fill="#7F8E9A" fill-opacity="1.00" stroke="None">
<path d="
M 311.00 223.00 
C 312.68 221.82 312.72 215.20 311.00 214.00
C 311.00 217.00 311.00 220.00 311.00 223.00 Z"/>
</g>
<g fill="#717C85" fill-opacity="1.00" stroke="None">
<path d="
M 184.00 234.00 
C 183.49 231.15 185.09 227.09 183.00 225.00
C 184.60 227.28 181.28 232.09 184.00 234.00 Z"/>
</g>
<g fill="#6C7780" fill-opacity="1.00" stroke="None">
<path d="
M 201.00 255.00 
C 196.23 252.77 189.52 254.59 184.00 254.00
C 184.00 250.67 184.00 247.33 184.00 244.00
C 191.33 244.00 198.67 244.00 206.00 244.00
C 205.77 243.84 206.00 243.00 206.00 243.00
C 198.70 242.34 186.03 237.59 183.00 247.00 C 179.97 256.41 194.92 253.18 201.00 255.00 Z"/>
</g>
<g fill="#BDC9D1" fill-opacity="1.00" stroke="None">
<path d="
M 206.00 244.00 
C 208.73 245.91 211.70 248.70 214.00 251.00
C 211.91 248.55 209.16 244.32 206.00 243.00
C 206.00 243.00 205.77 243.84 206.00 244.00 Z"/>
</g>
<g fill="#0B253A" fill-opacity="1.00" stroke="None">
<path d="
M 288.00 251.00 
C 285.53 253.89 282.61 256.39 280.00 259.00
C 278.31 260.98 276.53 263.82 274.00 265.00
C 268.13 267.75 257.94 266.07 251.00 266.00 C 244.06 265.93 232.92 267.77 227.00 265.00
C 221.57 262.46 217.78 255.42 214.00 251.00
C 211.70 248.70 208.73 245.91 206.00 244.00
C 198.67 244.00 191.33 244.00 184.00 244.00
C 184.00 247.33 184.00 250.67 184.00 254.00
C 189.52 254.59 196.23 252.77 201.00 255.00
C 209.64 259.04 213.78 272.16 222.00 276.00
C 229.83 278.34 241.70 276.10 250.00 276.00 C 258.30 275.90 271.05 278.38 279.00 276.00
C 289.61 265.80 301.10 255.03 309.00 243.00
C 299.31 240.87 293.85 244.15 288.00 251.00 Z"/>
</g>
<g fill="#77848E" fill-opacity="1.00" stroke="None">
<path d="
M 280.00 259.00 
C 282.61 256.39 285.53 253.89 288.00 251.00
C 285.39 253.61 282.47 256.11 280.00 259.00 Z"/>
</g>
<g fill="#7F858B" fill-opacity="1.00" stroke="None">
<path d="
M 269.00 256.00 
C 262.45 258.16 252.75 254.86 246.00 256.00 C 239.25 257.14 232.69 256.69 228.00 252.00
C 232.83 257.65 239.60 258.09 247.00 257.00 C 254.40 255.91 262.69 259.19 269.00 256.00 Z"/>
</g>
<g fill="#657078" fill-opacity="1.00" stroke="None">
<path d="
M 274.00 265.00 
C 267.43 266.97 256.85 264.90 250.00 265.00 C 243.15 265.10 233.45 266.93 227.00 265.00
C 232.92 267.77 244.06 265.93 251.00 266.00 C 257.94 266.07 268.13 267.75 274.00 265.00 Z"/>
</g>
<g fill="#707B84" fill-opacity="1.00" stroke="None">
<path d="
M 279.00 276.00 
C 271.05 278.38 258.30 275.90 250.00 276.00 C 241.70 276.10 229.83 278.34 222.00 276.00
C 229.04 279.29 242.81 276.92 251.00 277.00 C 259.19 277.08 272.02 279.27 279.00 276.00 Z"/>
</g>
<g fill="#142736" fill-opacity="1.00" stroke="None">
<path d="
M 181.00 304.00 
C 183.15 301.85 188.80 302.92 191.00 304.00
C 192.36 305.75 192.78 308.05 196.00 307.00
C 198.93 297.82 182.70 298.80 178.25 300.25 C 173.80 301.70 174.22 318.22 179.00 319.00 C 183.78 319.78 198.70 321.21 196.00 312.00
C 192.51 311.05 191.89 313.45 191.00 316.00
C 183.17 320.45 175.09 309.91 181.00 304.00 Z"/>
</g>
<g fill="#1C2E3F" fill-opacity="1.00" stroke="None">
<path d="
M 223.00 320.00 
C 219.37 315.26 219.13 301.25 212.00 300.00 C 204.88 298.75 203.35 314.73 200.00 319.00
C 203.17 319.81 205.20 317.78 206.00 315.00
C 209.67 315.00 213.33 315.00 217.00 315.00
C 217.89 317.87 219.07 321.19 223.00 320.00
M 212.00 304.00 
C 212.60 306.79 214.92 308.93 215.00 312.00
C 207.33 314.68 206.75 307.27 212.00 304.00 Z"/>
</g>
<g fill="#1C2D3D" fill-opacity="1.00" stroke="None">
<path d="
M 232.00 314.00 
C 234.93 311.29 240.40 314.31 244.00 313.00
C 255.20 301.05 236.61 297.45 227.00 300.00
C 228.76 306.05 222.96 318.69 231.00 320.00
C 231.16 317.88 230.42 315.46 232.00 314.00
M 242.00 303.00 
C 247.35 306.73 237.19 314.36 232.33 309.67 C 227.47 304.98 237.31 299.73 242.00 303.00 Z"/>
</g>
<g fill="#77838D" fill-opacity="1.00" stroke="None">
<path d="
M 256.00 300.00 
C 256.00 306.33 256.00 312.67 256.00 319.00
C 249.61 317.31 254.56 305.71 253.00 300.00
C 250.68 305.67 252.66 313.50 252.00 320.00
C 259.54 323.16 258.40 301.18 256.00 300.00 Z"/>
</g>
<g fill="#0D2335" fill-opacity="1.00" stroke="None">
<path d="
M 256.00 300.00 
C 255.69 299.85 253.31 299.85 253.00 300.00
C 254.56 305.71 249.61 317.31 256.00 319.00
C 256.00 312.67 256.00 306.33 256.00 300.00 Z"/>
</g>
<g fill="#162737" fill-opacity="1.00" stroke="None">
<path d="
M 261.00 303.00 
C 263.43 303.62 267.41 301.73 269.00 304.00
C 270.41 308.66 265.50 319.76 273.00 319.00
C 274.76 315.23 270.65 307.36 273.00 304.00
C 274.54 301.80 278.66 303.60 281.00 303.00
C 281.00 302.00 281.00 301.00 281.00 300.00
C 274.33 300.00 267.67 300.00 261.00 300.00
C 261.31 300.85 260.61 302.19 261.00 303.00 Z"/>
</g>
<g fill="#182B3C" fill-opacity="1.00" stroke="None">
<path d="
M 304.00 319.00 
C 300.65 314.55 299.80 300.24 293.01 300.01 C 286.22 299.78 284.90 314.71 282.00 319.00
C 287.23 317.76 291.05 312.87 298.00 315.00
C 298.78 317.71 300.86 319.89 304.00 319.00
M 296.00 312.00 
C 288.94 314.03 289.68 308.23 292.00 304.00
C 295.25 304.42 295.54 309.24 296.00 312.00 Z"/>
</g>
<g fill="#6D7A88" fill-opacity="1.00" stroke="None">
<path d="
M 309.00 319.00 
C 309.00 312.67 309.00 306.33 309.00 300.00
C 306.70 301.33 307.22 317.22 309.00 319.00 Z"/>
</g>
<g fill="#182939" fill-opacity="1.00" stroke="None">
<path d="
M 309.00 319.00 
C 314.33 319.00 319.67 319.00 325.00 319.00
C 325.00 318.00 325.00 317.00 325.00 316.00
C 321.00 316.00 317.00 316.00 313.00 316.00
C 313.00 310.67 313.00 305.33 313.00 300.00
C 311.92 300.44 310.00 299.42 309.00 300.00
C 309.00 306.33 309.00 312.67 309.00 319.00 Z"/>
</g>
<g fill="#728797" fill-opacity="1.00" stroke="None">
<path d="
M 181.00 304.00 
C 182.08 303.24 189.67 303.58 191.00 304.00
C 188.80 302.92 183.15 301.85 181.00 304.00 Z"/>
</g>
<g fill="#DEE4E9" fill-opacity="1.00" stroke="None">
<path d="
M 242.00 303.00 
C 237.31 299.73 227.47 304.98 232.33 309.67 C 237.19 314.36 247.35 306.73 242.00 303.00 Z"/>
</g>
<g fill="#7B8B98" fill-opacity="1.00" stroke="None">
<path d="
M 269.00 304.00 
C 267.41 301.73 263.43 303.62 261.00 303.00
C 262.18 305.44 266.87 303.25 269.00 304.00 Z"/>
</g>
<g fill="#86949F" fill-opacity="1.00" stroke="None">
<path d="
M 273.00 304.00 
C 275.04 303.29 279.86 305.34 281.00 303.00
C 278.66 303.60 274.54 301.80 273.00 304.00 Z"/>
</g>
<g fill="#D5DDE2" fill-opacity="1.00" stroke="None">
<path d="
M 212.00 304.00 
C 206.75 307.27 207.33 314.68 215.00 312.00
C 214.92 308.93 212.60 306.79 212.00 304.00 Z"/>
</g>
<g fill="#D4DBE1" fill-opacity="1.00" stroke="None">
<path d="
M 296.00 312.00 
C 295.54 309.24 295.25 304.42 292.00 304.00
C 289.68 308.23 288.94 314.03 296.00 312.00 Z"/>
</g>
<g fill="#8695A2" fill-opacity="1.00" stroke="None">
<path d="
M 232.00 314.00 
C 234.82 312.18 240.90 314.71 244.00 313.00
C 240.40 314.31 234.93 311.29 232.00 314.00 Z"/>
</g>
<g fill="#96A4B1" fill-opacity="1.00" stroke="None">
<path d="
M 325.00 319.00 
C 319.67 319.00 314.33 319.00 309.00 319.00
C 310.51 320.51 323.88 321.31 325.00 319.00 Z"/>
</g>
<g fill="#394046" fill-opacity="1.00" stroke="None">
<path d="
M 232.00 334.00 
C 231.93 325.97 218.78 326.92 219.00 335.00 C 219.22 343.08 230.24 343.66 232.00 337.00
C 226.57 340.89 219.23 339.20 222.00 331.00
C 226.25 329.98 229.39 331.95 232.00 334.00 Z"/>
</g>
<g fill="#2C353F" fill-opacity="1.00" stroke="None">
<path d="
M 248.00 341.00 
C 249.48 339.95 249.74 332.50 249.00 331.00
C 245.92 326.73 236.49 327.81 236.00 334.00 C 235.51 340.19 241.73 344.10 248.00 341.00
M 247.00 331.00 
C 248.67 337.44 245.44 340.61 239.00 339.00
C 237.33 332.56 240.56 329.39 247.00 331.00 Z"/>
</g>
<g fill="#2D3641" fill-opacity="1.00" stroke="None">
<path d="
M 254.00 341.00 
C 260.62 340.53 267.02 343.52 267.00 335.00 C 266.98 326.48 260.65 329.44 254.00 329.00
C 254.00 333.00 254.00 337.00 254.00 341.00
M 257.00 339.00 
C 254.49 334.19 259.56 327.37 264.22 331.78 C 268.89 336.18 261.18 341.38 257.00 339.00 Z"/>
</g>
<g fill="#2E3742" fill-opacity="1.00" stroke="None">
<path d="
M 283.00 330.00 
C 274.69 325.30 267.92 331.82 271.00 341.00
C 274.84 340.43 279.91 342.19 283.00 340.00
C 281.09 336.97 272.94 341.77 274.00 336.00
C 276.52 335.53 280.23 337.03 282.00 335.00
C 280.31 332.14 272.78 336.49 274.00 331.00
C 276.85 330.50 280.90 332.08 283.00 330.00 Z"/>
</g>
<g fill="#EAEFF3" fill-opacity="1.00" stroke="None">
<path d="
M 247.00 331.00 
C 240.56 329.39 237.33 332.56 239.00 339.00
C 245.44 340.61 248.67 337.44 247.00 331.00 Z"/>
</g>
<g fill="#8A9096" fill-opacity="1.00" stroke="None">
<path d="
M 248.00 341.00 
C 251.12 339.46 250.62 333.24 249.00 331.00
C 249.74 332.50 249.48 339.95 248.00 341.00 Z"/>
</g>
<g fill="#E6EBED" fill-opacity="1.00" stroke="None">
<path d="
M 257.00 339.00 
C 261.18 341.38 268.89 336.18 264.22 331.78 C 259.56 327.37 254.49 334.19 257.00 339.00 Z"/>
</g>
</svg>